<?xml version="1.0" encoding="UTF-8"?>
<svg id="Layer_2" data-name="Layer 2" xmlns="http://www.w3.org/2000/svg" viewBox="0 0 593.21 86.18">
  <g id="Layer_1-2" data-name="Layer 1">
    <path d="m419.09,22.98v62.23h-14.61V.78c4.18,0,8.27.32,12.29-.08,4.59-.46,7.27,1.21,9.86,5.09,12.48,18.7,25.33,37.15,38.05,55.69.47.68.96,1.34,2.04,1.98v-2.76c0-18.91.05-37.82-.05-56.73-.01-2.51.63-3.39,3.21-3.25,3.8.21,7.61.05,11.57.05v84.58h-2.37c-4.66,0-9.33-.08-13.99.04-1.72.05-2.68-.59-3.63-1.97-13.24-19.39-26.54-38.75-39.83-58.12-.6-.87-1.23-1.73-1.84-2.59-.23.08-.45.16-.68.24Z"/>
    <path d="m515.02,85.36v-2.8c0-26.24.03-52.48-.05-78.72,0-2.32.51-3.17,2.99-3.12,12.07.22,24.17-.12,36.22.51,5.98.31,12.09,1.66,17.75,3.63,10.85,3.79,17.16,12.04,19.6,23.13,2.34,10.64,2.22,21.34-.29,31.96-3.05,12.85-11.45,20.45-24.06,23.25-5.8,1.29-11.84,1.88-17.79,2.06-10.57.32-21.16.09-31.74.1-.74,0-1.48,0-2.64,0Zm15.04-14.57c10.37-.33,20.47-.1,30.45-1.13,11.43-1.18,15.99-5.72,17.06-16.65.68-6.97.36-14.13-.31-21.13-.67-7.03-4.72-11.98-11.7-14.08-1.9-.57-3.87-1.19-5.83-1.27-9.56-.4-19.12-.63-28.68-.9-.3,0-.61.19-.98.31v54.85Z"/>
    <path d="m363.52,21.87h-14.57c.02-5.41-3.69-6.44-7.92-6.52-5.07-.08-10.14-.05-15.2.24-3.23.19-4.89,1.86-5.28,4.4-.63,4.06.31,6.72,3.63,7.82,5.03,1.67,10.28,2.69,15.37,4.19,5.89,1.73,11.9,3.26,17.54,5.62,9.38,3.92,13.74,11.36,13.44,21.56-.4,13.55-6.57,21.73-19.74,24.96-11.41,2.8-22.95,2.82-34.26-.76-6.23-1.97-11.22-5.68-14.55-11.79,4.29-2.4,8.48-4.74,12.8-7.16,3.47,5.41,8.88,6.36,14.48,6.43,5.56.08,11.17.05,16.69-.54,7.89-.84,11.78-7.58,9.22-15.19-.85-2.54-2.77-4.01-5.14-4.7-5.57-1.63-11.2-3.1-16.84-4.49-6.87-1.7-13.75-3.33-19.66-7.53-6.73-4.78-8.61-11.61-7.86-19.34.71-7.4,4.56-12.97,11.51-15.66,11.63-4.5,23.47-4.66,35.08.11,7.58,3.11,11.61,9.98,11.26,18.34Z"/>
    <path d="m97.5,85.16c0-1.04,0-1.86,0-2.69,0-26.23.03-52.47-.05-78.7,0-2.41.68-3.06,3.07-3.05,19.4.09,38.81.09,58.21,0,2.27,0,3.08.58,2.97,2.93-.18,3.81-.05,7.64-.05,11.86h-49.1v54.96h2.89c14.49,0,28.98.05,43.47-.05,2.24-.02,2.88.66,2.79,2.83-.16,3.9-.04,7.8-.04,11.9h-64.15Z"/>
    <path d="m194.93,15.59c0-4.66.04-8.82-.02-12.97-.03-1.93,1.21-1.84,2.51-1.84,9.17,0,18.33,0,27.49,0,13.5,0,27,0,40.49,0h3.08v14.81h-2.68c-7.92,0-15.83.08-23.74-.05-2.29-.04-2.95.6-2.94,2.92.09,21.25.05,42.49.05,63.74,0,.91,0,1.82,0,3.13-4.7,0-9.24.03-13.77-.05-.35,0-.87-.69-.97-1.14-.17-.71-.07-1.49-.07-2.24,0-20.83,0-41.66,0-62.49,0-4.46.28-3.8-3.93-3.81-7.5-.03-15,0-22.5,0h-3Z"/>
    <path d="m64.04,70.49v14.88h-2.53c-19.57,0-39.15-.04-58.72.05-2.23.01-2.79-.62-2.79-2.81C.08,56.29.08,29.97,0,3.64,0,1.25.8.63,3.02.74c3.07.15,6.17.15,9.24,0,2.05-.1,2.75.55,2.71,2.66-.12,7.08-.04,14.16-.04,21.24,0,14.33.05,28.65-.05,42.98-.02,2.31.65,2.93,2.94,2.91,14.33-.1,28.65-.05,42.98-.05.99,0,1.97,0,3.24,0Z"/>
  </g>
</svg>